<svg width="79" height="105" viewBox="0 0 79 105" fill="none" xmlns="http://www.w3.org/2000/svg">
<path d="M9.09998 0H13.8337V4.67687H18.165V0H22.8987V14.1575H18.165V9.41937H13.8337V14.1575H9.10435V0H9.09998ZM29.12 4.69437H24.955V0H38.0231V4.69437H33.8537V14.1575H29.12V4.69437ZM40.0969 0H45.0319L48.0681 4.97437L51.1 0H56.035V14.1575H51.3231V7.14L48.0681 12.1756H47.985L44.7256 7.14437V14.1575H40.0969V0ZM58.3887 0H63.1269V9.48062H69.7769V14.1619H58.3887V0Z" fill="white"/>
<path fill-rule="evenodd" clip-rule="evenodd" d="M8.95125 96.5649L0 20.6368H78.75L69.7944 96.5562L39.3312 105L8.95125 96.5649ZM27.0506 55.0024L26.2019 45.4649H61.8363L62.6675 36.1549H16.03L18.5413 64.3168H50.8156L49.735 76.3918L39.3488 79.2005H39.34L28.9712 76.4005L28.3063 68.9762H18.9525L20.2563 83.5974L39.3312 88.8912L58.4369 83.5974L60.7644 57.5049L60.9919 55.0068H27.0506V55.0024Z" fill="white"/>
</svg>
