<svg width="105" height="105" viewBox="0 0 105 105" fill="none" xmlns="http://www.w3.org/2000/svg">
<path fill-rule="evenodd" clip-rule="evenodd" d="M0 0H105V105H0V0ZM80.2681 88.025C75.3988 88.025 72.6469 85.4875 70.5338 82.0312L62.5144 86.6906C65.4106 92.4131 71.33 96.7794 80.4956 96.7794C89.8669 96.7794 96.845 91.9144 96.845 83.0288C96.845 74.7906 92.1113 71.1288 83.7288 67.5281L81.2612 66.4738C77.0262 64.6363 75.1931 63.4419 75.1931 60.48C75.1931 58.0869 77.0306 56.2537 79.9181 56.2537C82.7487 56.2537 84.5731 57.4481 86.2663 60.48L93.9488 55.5494C90.6981 49.8312 86.1919 47.6481 79.9181 47.6481C71.1069 47.6481 65.4675 53.2831 65.4675 60.6856C65.4675 68.7138 70.1925 72.5156 77.315 75.5475L79.7825 76.6063C84.2844 78.575 86.9662 79.7738 86.9662 83.1556C86.9662 85.9819 84.3544 88.025 80.2681 88.025ZM42.0306 87.9594C38.64 87.9594 37.2269 85.6406 35.6781 82.8844L27.6456 87.7494C29.9731 92.6756 34.5494 96.7619 42.4462 96.7619C51.1919 96.7619 57.1812 92.1113 57.1812 81.8956V48.2081H47.3156V81.7644C47.3156 86.695 45.2681 87.9594 42.0262 87.9594H42.0306Z" fill="white"/>
</svg>
