<?xml version="1.0" encoding="UTF-8"?>
<!DOCTYPE svg PUBLIC "-//W3C//DTD SVG 1.1//EN" "http://www.w3.org/Graphics/SVG/1.1/DTD/svg11.dtd">
<!-- Creator: CorelDRAW -->
<svg xmlns="http://www.w3.org/2000/svg" xml:space="preserve" width="36.2857mm" height="8.2587mm" version="1.1" style="shape-rendering:geometricPrecision; text-rendering:geometricPrecision; image-rendering:optimizeQuality; fill-rule:evenodd; clip-rule:evenodd"
viewBox="0 0 699.5 159.21"
 xmlns:xlink="http://www.w3.org/1999/xlink"
 xmlns:xodm="http://www.corel.com/coreldraw/odm/2003">
 <defs>
  <style type="text/css">
   <![CDATA[
    .fil0 {fill:white}
    .fil1 {fill:white;fill-rule:nonzero}
   ]]>
  </style>
 </defs>
 <g id="Camada_x0020_1">
  <metadata id="CorelCorpID_0Corel-Layer"/>
  <g id="_1351813311520">
   <path class="fil0" d="M133.99 125.83l-53.56 30.9c-2.86,1.65 -5.94,2.48 -9.01,2.48l0 -11.42c0,-5.58 2.96,-10.35 7.95,-12.84 0.36,-0.18 0.71,-0.37 1.06,-0.57l34.34 -19.83c5.71,-3.29 9.07,-8.94 9.01,-15.53l-0.32 -37.64 18.92 -10.92 0.63 59.7c0.07,6.64 -3.27,12.35 -9.02,15.67zm-105.15 -19.11l-1.7 4.66c-0.45,1.24 -0.03,2.57 1.04,3.33 8.75,6.15 23.78,13.64 32.89,18.9 4.56,2.63 7.17,7.15 7.17,12.42l0 12.88c-2,-0.37 -3.97,-1.1 -5.84,-2.19 -17.94,-10.31 -35.74,-20.55 -53.36,-30.68 -0.02,-0.01 -0.04,-0.03 -0.07,-0.04 -1.21,-0.71 -1.74,-2.15 -1.25,-3.47l1.65 -4.5 0.03 -0.08c0.28,-0.82 0.21,-1.63 -0.23,-2.38 -0.43,-0.75 -1.1,-1.22 -1.95,-1.38l-0.08 -0.02 -4.78 -0.85c-1.38,-0.25 -2.36,-1.41 -2.37,-2.81 -0,-0.05 -0,-0.1 -0,-0.14 0.03,-20.33 0.07,-40.87 0.1,-61.55 0,-2.35 0.42,-4.59 1.22,-6.64l10.97 6.33c4.56,2.63 7.17,7.15 7.17,12.42 0,10.66 -1.05,27.73 -0.08,38.52 0.12,1.31 1.06,2.34 2.35,2.57l4.93 0.88c0.86,0.15 1.54,0.63 1.98,1.39 0.44,0.76 0.51,1.59 0.21,2.42zm-26.11 -67.37c1.53,-2.47 3.69,-4.57 6.4,-6.14l53.48 -30.79c5.75,-3.31 12.26,-3.15 18.08,0.05l15.36 8.44 -1.99 3.45c-3.96,6.85 -11.53,10.24 -19.27,8.64 -4.24,-0.88 -8.54,-0.31 -12.52,1.98l-33.79 19.51c-0.24,0.14 -0.47,0.28 -0.7,0.43 -4.62,2.93 -10.11,3.05 -14.85,0.31l-10.18 -5.88z"/>
   <path class="fil0" d="M115.1 39.41l-36.12 20.91 1.29 2.21c4.99,8.55 16.02,11.48 24.58,6.52l36.12 -20.92 -1.29 -2.21c-4.99,-8.55 -16.02,-11.48 -24.58,-6.52z"/>
  </g>
  <path class="fil1" d="M219.84 89.49c-7.48,0 -14.04,-1.3 -19.69,-3.89 -5.65,-2.59 -10.06,-6.81 -13.22,-12.65 -3.17,-5.84 -4.75,-13.57 -4.75,-23.18 0,-9.39 1.58,-17.04 4.75,-22.95 3.17,-5.92 7.58,-10.25 13.22,-12.99 5.65,-2.75 12.17,-4.12 19.58,-4.12 4.96,0 9.79,0.5 14.48,1.49 4.69,0.99 9.21,2.37 13.57,4.12l0 18.66c-4.81,-2.59 -9.18,-4.64 -13.11,-6.12 -3.93,-1.49 -7.99,-2.23 -12.19,-2.23 -3.97,0 -7.38,0.71 -10.25,2.12 -2.86,1.41 -5.06,3.85 -6.58,7.33 -1.53,3.47 -2.29,8.34 -2.29,14.6 0,6.11 0.8,10.93 2.4,14.48 1.6,3.55 3.76,6.05 6.47,7.5 2.71,1.45 5.74,2.18 9.1,2.18 1.91,0 3.65,-0.13 5.21,-0.4 1.57,-0.27 2.88,-0.67 3.95,-1.2l0 -11.79 -11.45 0 0 -15.8 32.17 0 0 36.17c-4.88,2.82 -9.98,4.98 -15.28,6.47 -5.31,1.49 -10.67,2.23 -16.09,2.23z"/>
  <path id="_1" class="fil1" d="M302.95 90.52c-12.13,0 -21.2,-2.44 -27.19,-7.33 -5.99,-4.88 -8.99,-12.63 -8.99,-23.24l0 -48.42 21.64 0 0 47.28c0,5.42 1.05,9.43 3.15,12.02 2.1,2.59 5.55,3.89 10.36,3.89 4.27,0 7.59,-1.3 9.96,-3.89 2.37,-2.59 3.55,-6.6 3.55,-12.02l0 -47.28 19.69 0 0 48.42c0,7.1 -1.37,12.9 -4.12,17.4 -2.75,4.5 -6.54,7.82 -11.39,9.96 -4.85,2.14 -10.4,3.21 -16.66,3.21z"/>
  <path id="_2" class="fil1" d="M377.13 89.49c-3.82,0 -7.37,-0.15 -10.65,-0.46 -3.28,-0.31 -6.32,-0.82 -9.1,-1.55 -2.79,-0.72 -5.44,-1.7 -7.96,-2.92l0 -19.46c3.82,2.98 7.98,5.17 12.48,6.58 4.5,1.41 8.59,2.12 12.25,2.12 2.9,0 5.23,-0.53 6.98,-1.6 1.76,-1.07 2.63,-2.9 2.63,-5.49 0,-1.76 -0.86,-3.19 -2.58,-4.29 -1.72,-1.11 -4.01,-2.1 -6.87,-2.98 -2.86,-0.88 -6.09,-1.93 -9.67,-3.15 -2.14,-0.76 -4.22,-1.68 -6.24,-2.75 -2.02,-1.07 -3.84,-2.4 -5.44,-4.01 -1.6,-1.6 -2.9,-3.59 -3.89,-5.95 -0.99,-2.37 -1.49,-5.23 -1.49,-8.58 0,-3.36 0.63,-6.56 1.89,-9.62 1.26,-3.05 3.15,-5.76 5.67,-8.13 2.52,-2.37 5.72,-4.22 9.62,-5.55 3.89,-1.34 8.43,-2 13.62,-2 3.13,0 5.95,0.17 8.47,0.51 2.52,0.34 4.9,0.9 7.16,1.66 2.25,0.76 4.52,1.72 6.81,2.86l0 19.69c-1.68,-1.45 -3.64,-2.82 -5.9,-4.12 -2.25,-1.3 -4.6,-2.4 -7.04,-3.32 -2.44,-0.92 -4.88,-1.45 -7.33,-1.6 -2.06,-0.08 -3.99,0.1 -5.78,0.52 -1.79,0.42 -3.24,1.16 -4.35,2.23 -1.11,1.07 -1.66,2.52 -1.66,4.35 0,1.91 0.63,3.42 1.89,4.52 1.26,1.11 3.01,2.02 5.26,2.75 2.25,0.72 4.75,1.47 7.5,2.23 3.21,0.92 6.12,1.95 8.76,3.09 2.63,1.15 4.9,2.56 6.81,4.24 1.91,1.68 3.4,3.72 4.46,6.12 1.07,2.4 1.6,5.32 1.6,8.76 0,4.88 -1.15,9.23 -3.44,13.05 -2.29,3.82 -5.51,6.81 -9.67,8.99 -4.16,2.17 -9.1,3.26 -14.82,3.26z"/>
  <polygon id="_3" class="fil1" points="432.54,87.88 432.54,27.33 412.16,27.21 412.16,11.53 473.87,11.53 473.87,27.33 453.15,27.21 453.15,87.88 "/>
  <path id="_4" class="fil1" d="M471.12 87.88l28.5 -76.36 22.78 0 26.33 76.36 -21.29 0 -23.93 -72.81 10.65 -0.92 -23.81 73.72 -19.23 0zm16.83 -15l3.89 -14.77 34.12 0 1.95 14.77 -39.95 0z"/>
  <polygon id="_5" class="fil1" points="570.71,87.88 542.44,11.53 566.48,11.53 587.08,75.52 580.45,75.52 600.94,11.53 623.03,11.53 592.92,87.88 "/>
  <path id="_6" class="fil1" d="M661.61 89.49c-7.55,0 -14.18,-1.41 -19.86,-4.24 -5.68,-2.82 -10.11,-7.17 -13.28,-13.05 -3.17,-5.88 -4.75,-13.36 -4.75,-22.44 0,-13.13 3.34,-23.05 10.02,-29.76 6.68,-6.72 15.97,-10.07 27.88,-10.07 7.55,0 14.18,1.41 19.86,4.24 5.69,2.82 10.11,7.15 13.28,12.99 3.17,5.84 4.75,13.34 4.75,22.5 0,13.13 -3.32,23.05 -9.96,29.76 -6.64,6.71 -15.95,10.07 -27.93,10.07zm0 -16.71c3.44,0 6.37,-0.72 8.82,-2.17 2.44,-1.45 4.33,-3.87 5.67,-7.27 1.34,-3.4 2,-7.99 2,-13.8 0,-5.72 -0.67,-10.26 -2,-13.62 -1.34,-3.36 -3.22,-5.74 -5.67,-7.16 -2.44,-1.41 -5.38,-2.12 -8.82,-2.12 -3.43,0 -6.37,0.74 -8.81,2.23 -2.44,1.49 -4.33,3.91 -5.67,7.27 -1.34,3.36 -2,7.94 -2,13.74 0,5.72 0.67,10.24 2,13.57 1.34,3.32 3.23,5.7 5.67,7.15 2.44,1.45 5.38,2.17 8.81,2.17z"/>
  <polygon class="fil1" points="189.6,141.49 179.29,109.35 182.95,109.35 192.15,138.5 191.09,138.5 199.86,109.35 203.33,109.35 212.39,138.94 211.04,138.94 220.24,109.35 223.9,109.35 213.54,141.49 210.03,141.49 201.02,113.02 202.17,113.02 193.16,141.49 "/>
  <polygon id="_1_0" class="fil1" points="253.92,141.49 253.92,109.35 274.21,109.35 274.21,112.63 257.39,112.63 257.39,123.71 272.18,123.71 272.18,127.08 257.39,127.08 257.39,138.21 274.21,138.21 274.21,141.49 "/>
  <polygon id="_2_1" class="fil1" points="306.64,141.49 306.64,109.35 310.11,109.35 310.11,138.12 326.54,138.12 326.54,141.49 "/>
  <polygon id="_3_2" class="fil1" points="356.56,141.49 356.56,109.35 360.03,109.35 360.03,138.12 376.46,138.12 376.46,141.49 "/>
  <polygon id="_4_3" class="fil1" points="406.48,141.49 406.48,109.35 409.95,109.35 409.95,141.49 "/>
  <polygon id="_5_4" class="fil1" points="442.86,141.49 442.86,109.35 446.81,109.35 466.85,137.64 465.98,138.98 465.98,109.35 469.45,109.35 469.45,141.49 465.55,141.49 444.74,112.15 446.33,110.65 446.33,141.49 "/>
  <path id="_6_5" class="fil1" d="M516.05 141.97c-3.28,0 -6.02,-0.62 -8.24,-1.85 -2.22,-1.24 -3.88,-3.08 -4.99,-5.54 -1.11,-2.46 -1.66,-5.52 -1.66,-9.18 0,-3.66 0.55,-6.71 1.66,-9.15 1.11,-2.44 2.77,-4.27 4.99,-5.49 2.21,-1.22 4.96,-1.83 8.24,-1.83 1.77,0 3.5,0.18 5.2,0.53 1.7,0.35 3.34,0.9 4.91,1.64l0 3.61c-1.51,-0.67 -3.08,-1.26 -4.72,-1.76 -1.64,-0.5 -3.31,-0.75 -5.01,-0.75 -2.7,0 -4.92,0.47 -6.67,1.42 -1.75,0.95 -3.04,2.39 -3.88,4.34 -0.83,1.94 -1.25,4.42 -1.25,7.44 0,3.02 0.42,5.51 1.25,7.47 0.83,1.96 2.13,3.41 3.88,4.36 1.75,0.95 3.98,1.42 6.67,1.42 1.29,0 2.54,-0.1 3.76,-0.29 1.22,-0.19 2.43,-0.48 3.61,-0.87l0 -9.15 -7.76 0 0 -3.37 11.23 0 0 14.5c-1.77,0.84 -3.58,1.46 -5.44,1.88 -1.86,0.42 -3.79,0.63 -5.78,0.63z"/>
  <polygon id="_7" class="fil1" points="568.43,141.49 568.43,112.63 557.06,112.63 557.06,109.35 583.22,109.35 583.22,112.63 571.9,112.63 571.9,141.49 "/>
  <path id="_8" class="fil1" d="M625.48 141.97c-3.18,0 -5.84,-0.62 -7.97,-1.85 -2.14,-1.24 -3.74,-3.08 -4.82,-5.52 -1.08,-2.44 -1.61,-5.49 -1.61,-9.15 0,-5.46 1.21,-9.58 3.64,-12.36 2.43,-2.78 6.01,-4.17 10.77,-4.17 3.21,0 5.89,0.62 8.02,1.85 2.14,1.24 3.74,3.07 4.82,5.52 1.08,2.44 1.61,5.49 1.61,9.15 0,5.46 -1.21,9.58 -3.64,12.36 -2.43,2.78 -6.03,4.17 -10.82,4.17zm0 -3.28c2.54,0 4.61,-0.46 6.22,-1.4 1.61,-0.93 2.79,-2.38 3.54,-4.34 0.75,-1.96 1.13,-4.46 1.13,-7.52 0,-3.05 -0.38,-5.55 -1.13,-7.49 -0.76,-1.94 -1.94,-3.39 -3.54,-4.34 -1.61,-0.95 -3.68,-1.42 -6.22,-1.42 -2.5,0 -4.56,0.47 -6.17,1.42 -1.61,0.95 -2.79,2.39 -3.54,4.34 -0.75,1.94 -1.13,4.44 -1.13,7.49 0,3.05 0.38,5.56 1.13,7.52 0.76,1.96 1.94,3.4 3.54,4.34 1.61,0.93 3.66,1.4 6.17,1.4z"/>
  <polygon id="_9" class="fil1" points="671.64,141.49 671.64,109.35 675.59,109.35 695.63,137.64 694.77,138.98 694.77,109.35 698.24,109.35 698.24,141.49 694.33,141.49 673.52,112.15 675.11,110.65 675.11,141.49 "/>
 </g>
</svg>
