<svg width="105" height="105" viewBox="0 0 105 105" fill="none" xmlns="http://www.w3.org/2000/svg">
<path d="M105 51.1394C105 44.1831 96.2894 37.59 82.9325 33.5037C86.0169 19.8931 84.6475 9.06063 78.61 5.59125C77.1471 4.7719 75.4913 4.35948 73.815 4.39687V9.16563C74.7994 9.16563 75.5912 9.3625 76.2562 9.72563C79.1656 11.3969 80.43 17.7494 79.4456 25.9263C79.2094 27.9388 78.8244 30.0562 78.3519 32.2175C73.879 31.1397 69.3394 30.3606 64.7631 29.8856C62.0369 26.1244 59.0625 22.5494 55.86 19.1844C62.8381 12.7006 69.3875 9.14813 73.8412 9.14813V4.375C67.9525 4.375 60.2481 8.57062 52.4562 15.8462C44.6688 8.61875 36.96 4.4625 31.0756 4.4625V9.23125C35.5075 9.23125 42.0788 12.7662 49.0569 19.2062C46.06 22.3562 43.0631 25.9262 40.215 29.8856C35.6293 30.3554 31.0815 31.1418 26.6044 32.2394C26.1312 30.191 25.7589 28.1206 25.4888 26.0356C24.4825 17.8544 25.725 11.5019 28.6169 9.81313C29.2556 9.42812 30.0913 9.25313 31.0756 9.25313V4.48437C29.2819 4.48437 27.65 4.86937 26.2413 5.67875C20.2256 9.14812 18.8781 19.9544 21.98 33.5256C8.66688 37.6381 0 44.205 0 51.1394C0 58.0956 8.71063 64.6887 22.0675 68.7706C18.9831 82.3856 20.3525 93.2181 26.39 96.6831C27.7812 97.4969 29.4088 97.8819 31.2025 97.8819C37.0913 97.8819 44.7956 93.6862 52.5875 86.4106C60.375 93.6425 68.0794 97.7944 73.9681 97.7944C75.6573 97.8301 77.3257 97.4164 78.8025 96.5956C84.8181 93.1306 86.1656 82.3244 83.0638 68.7531C96.3331 64.6669 105 58.0737 105 51.1394ZM77.1312 36.8637C76.2999 39.7244 75.3364 42.5449 74.2437 45.3162C72.4551 41.8371 70.4911 38.4508 68.3594 35.1706C71.4 35.6212 74.3313 36.1769 77.1356 36.8637H77.1312ZM67.3313 59.6575C65.7288 62.4552 64.0079 65.1833 62.1731 67.8344C55.7517 68.4004 49.2933 68.4077 42.8706 67.8563C39.1866 62.5939 35.9648 57.0227 33.2412 51.205C35.9607 45.3736 39.1688 39.7828 42.8312 34.4925C49.2511 33.9254 55.708 33.9166 62.1294 34.4662C63.9056 37.0125 65.6425 39.7337 67.3094 42.6037C68.9369 45.4038 70.4156 48.2475 71.7631 51.1175C70.4007 54.0223 68.9222 56.8713 67.3313 59.6575ZM74.2437 56.875C75.3988 59.7406 76.3875 62.6106 77.1969 65.3931C74.3969 66.08 71.4394 66.6575 68.3812 67.1038C70.5042 63.7937 72.4608 60.3799 74.2437 56.875ZM52.5438 79.7125C50.5531 77.6562 48.5625 75.3681 46.5938 72.8612C48.5187 72.9487 50.4875 73.0144 52.4781 73.0144C54.4906 73.0144 56.4812 72.9706 58.4281 72.8612C56.5031 75.3681 54.5125 77.6562 52.5438 79.7125ZM36.6187 67.1038C33.6689 66.6763 30.7403 66.1128 27.8425 65.415C28.6344 62.6544 29.6188 59.8063 30.73 56.9625C31.6094 58.6688 32.5325 60.3838 33.5387 62.0988C34.545 63.8094 35.5687 65.4806 36.6187 67.1038ZM52.4344 22.5662C54.425 24.6225 56.4156 26.9106 58.3844 29.4175C56.4594 29.33 54.4906 29.2644 52.5 29.2644C50.4875 29.2644 48.4969 29.3081 46.55 29.4175C48.475 26.9106 50.4656 24.6225 52.4344 22.5662ZM36.5969 35.175C34.4744 38.4778 32.5178 41.8843 30.7344 45.3819C29.6109 42.5926 28.6254 39.7498 27.7812 36.8637C30.5812 36.1987 33.5387 35.6213 36.5969 35.175ZM17.2288 61.9675C9.65125 58.7387 4.75125 54.4994 4.75125 51.1394C4.75125 47.7794 9.65125 43.5181 17.2288 40.3112C19.0662 39.5194 21.0788 38.8106 23.1569 38.15C24.3775 42.3413 25.9831 46.7075 27.9694 51.1831C26.0941 55.3927 24.5081 59.7252 23.2225 64.1506C21.1901 63.5213 19.1898 62.7927 17.2288 61.9675ZM28.7438 92.5487C25.8344 90.8862 24.57 84.525 25.5544 76.3525C25.7906 74.34 26.1756 72.2181 26.6481 70.0569C30.8394 71.085 35.42 71.8769 40.2369 72.3931C42.9633 76.1543 45.9376 79.7293 49.14 83.0944C42.1619 89.5781 35.6125 93.1306 31.1588 93.1306C30.3185 93.1398 29.489 92.9414 28.7438 92.5531V92.5487ZM79.5112 76.2431C80.5175 84.42 79.275 90.7769 76.3831 92.4656C75.7444 92.8506 74.9087 93.0212 73.9244 93.0212C69.4925 93.0212 62.9212 89.4906 55.9431 83.0462C59.1322 79.6953 62.0865 76.1285 64.785 72.3712C69.3707 71.9015 73.9185 71.115 78.3956 70.0175C78.89 72.1787 79.2706 74.2525 79.5112 76.2431ZM87.7494 61.9675C85.9119 62.7594 83.8994 63.4681 81.8213 64.1287C80.513 59.6808 78.9052 55.3264 77.0087 51.0956C78.9775 46.6462 80.5569 42.3019 81.7556 38.1281C83.7945 38.7595 85.802 39.488 87.7712 40.3112C95.3488 43.54 100.249 47.7794 100.249 51.1394C100.227 54.4994 95.3269 58.7606 87.7494 61.9675Z" fill="white"/>
<path d="M52.4781 60.9219C55.0726 60.9219 57.5608 59.8912 59.3954 58.0566C61.23 56.2221 62.2606 53.7339 62.2606 51.1394C62.2606 48.5449 61.23 46.0567 59.3954 44.2221C57.5608 42.3875 55.0726 41.3569 52.4781 41.3569C49.8836 41.3569 47.3954 42.3875 45.5608 44.2221C43.7263 46.0567 42.6956 48.5449 42.6956 51.1394C42.6956 53.7339 43.7263 56.2221 45.5608 58.0566C47.3954 59.8912 49.8836 60.9219 52.4781 60.9219Z" fill="white"/>
</svg>
