<svg width="105" height="64" viewBox="0 0 105 64" fill="none" xmlns="http://www.w3.org/2000/svg">
<path d="M26.25 21.0548C29.749 7.01921 38.501 0 52.5 0C73.5 0 76.125 15.791 86.625 18.4228C93.626 20.1783 99.75 17.5465 105 10.5273C101.501 24.5628 92.749 31.582 78.75 31.582C57.75 31.582 55.125 15.791 44.625 13.1592C37.624 11.4038 31.5 14.0355 26.25 21.0548ZM0 52.6368C3.49904 38.6012 12.251 31.582 26.25 31.582C47.25 31.582 49.875 47.373 60.375 50.0048C67.376 51.7603 73.5 49.1285 78.75 42.1093C75.251 56.1449 66.499 63.1641 52.5 63.1641C31.5 63.1641 28.875 47.373 18.375 44.7413C11.374 42.9858 5.25 45.6176 0 52.6368Z" fill="white"/>
</svg>
