<svg width="105" height="105" viewBox="0 0 105 105" fill="none" xmlns="http://www.w3.org/2000/svg">
<path d="M0 52.5V105H105V0H0V52.5ZM84.6103 48.3131C87.1275 48.9058 89.4151 50.2248 91.1892 52.1063C92.1473 53.13 93.5812 55.0102 93.7027 55.4728C93.7355 55.6106 89.1745 58.6687 86.4052 60.3783C86.3034 60.4472 85.8933 60.0206 85.447 59.3512C84.0984 57.3858 82.6777 56.5327 80.5088 56.3784C77.3292 56.1717 75.2784 57.832 75.2948 60.6178C75.2782 61.2995 75.4303 61.9747 75.7378 62.5833C76.44 64.0369 77.7558 64.9064 81.8213 66.6684C89.3419 69.8972 92.5542 72.0333 94.5525 75.0586C96.7903 78.4416 97.2858 83.8425 95.783 87.8752C94.1095 92.2327 89.9719 95.2055 84.1608 96.18C82.3659 96.5048 78.0938 96.4523 76.1611 96.0947C71.9414 95.3433 67.9416 93.2564 65.4806 90.5231C64.5061 89.4633 62.6259 86.6775 62.7473 86.4905C62.7998 86.4216 63.2264 86.1492 63.7055 85.8736L67.6036 83.6161L70.6289 81.8573L71.2622 82.7958C72.1514 84.1444 74.0808 85.9917 75.2456 86.6053C78.5958 88.3837 83.1928 88.1278 85.4667 86.0934C86.3888 85.3256 86.9039 84.1444 86.835 82.95C86.835 81.7359 86.6808 81.1912 86.0475 80.2823C85.2272 79.1208 83.5702 78.1298 78.8353 76.0791C73.418 73.7363 71.0752 72.3023 68.9588 69.9956C67.6264 68.4773 66.6411 66.6869 66.0713 64.7489C65.6775 63.2625 65.5758 59.535 65.8842 58.0486C66.9966 52.8019 70.9603 49.163 76.65 48.0867C78.4973 47.7291 82.8023 47.8636 84.6136 48.3098L84.6103 48.3131ZM59.9681 52.7067L60.0009 56.9953H46.328V95.842H36.6548V56.9953H23.0016V52.792C23.0016 50.4492 23.0541 48.5034 23.1197 48.4509C23.1722 48.382 31.477 48.3492 41.5603 48.3656L59.9156 48.4181L59.9681 52.7067Z" fill="white"/>
</svg>
